<svg xmlns="http://www.w3.org/2000/svg" xmlns:xlink="http://www.w3.org/1999/xlink" width="166.47" height="174.68" viewBox="0 0 166.47 174.68"><defs><style>.bbb2a905-dac0-4330-a896-7e14315a4f0f{isolation:isolate;}.be8feec4-d359-4985-9dea-1a0f1ab8c64b{fill:url(#a7514be5-e4b6-497c-a533-ac797a9ecc72);}.b4bf431a-b6f0-406b-a8fe-36036808f888,.bad34102-4e5b-4aea-bb83-aef3ff082463{opacity:0.6;mix-blend-mode:multiply;}.b4bf431a-b6f0-406b-a8fe-36036808f888{fill:url(#b5e9bce6-461f-4925-81f6-790139962c5f);}.bad34102-4e5b-4aea-bb83-aef3ff082463{fill:url(#a52221a7-826c-41e6-ada4-bfeb15d023f6);}.ae8d805b-9723-437a-b5f0-193a2dd3718c{fill:url(#a8a82e6f-d516-446e-a5b7-c265e0f013ce);}.b9ba3fc6-2820-4f8c-a8f3-7d177f154869{fill:url(#a03d8049-28e2-47f5-9ffb-5c9df1591c69);}.a38dfd7f-db47-47b7-8c97-79962f46dc6b{fill:#29abe2;stroke:#3fa9f5;stroke-miterlimit:10;}.b994b022-c06b-41c7-9797-dd410129de8a{fill:#3fa9f5;}.a887222a-0952-4baf-9bc6-ef8b9d04cb32{fill:url(#a6206086-cd72-44b4-bbc6-14f67be5078b);}</style><linearGradient id="a7514be5-e4b6-497c-a533-ac797a9ecc72" x1="63.88" y1="224.16" x2="230.35" y2="224.16" gradientUnits="userSpaceOnUse"><stop offset="0" stop-color="#0e17ff"/><stop offset="1" stop-color="#c471f5"/></linearGradient><linearGradient id="b5e9bce6-461f-4925-81f6-790139962c5f" x1="146.94" y1="198.44" x2="148.64" y2="291.27" gradientUnits="userSpaceOnUse"><stop offset="0.11" stop-color="#666"/><stop offset="0.29" stop-color="#7c7c7c" stop-opacity="0.85"/><stop offset="0.63" stop-color="#b7b7b7" stop-opacity="0.47"/><stop offset="1" stop-color="#fff" stop-opacity="0"/></linearGradient><linearGradient id="a52221a7-826c-41e6-ada4-bfeb15d023f6" x1="191.93" y1="199.82" x2="104.85" y2="238.78" xlink:href="#b5e9bce6-461f-4925-81f6-790139962c5f"/><linearGradient id="a8a82e6f-d516-446e-a5b7-c265e0f013ce" x1="63.88" y1="182.01" x2="230.34" y2="182.01" gradientUnits="userSpaceOnUse"><stop offset="0" stop-color="#7600f0"/><stop offset="1" stop-color="#00f2fe"/></linearGradient><linearGradient id="a03d8049-28e2-47f5-9ffb-5c9df1591c69" x1="63.89" y1="194.24" x2="230.34" y2="194.24" gradientUnits="userSpaceOnUse"><stop offset="0" stop-color="#005bf6"/><stop offset="1" stop-color="#00f2fe" stop-opacity="0"/></linearGradient><linearGradient id="a6206086-cd72-44b4-bbc6-14f67be5078b" x1="106.8" y1="287.11" x2="130.01" y2="187.27" gradientUnits="userSpaceOnUse"><stop offset="0" stop-color="#90a8fc"/><stop offset="1" stop-color="#667eea" stop-opacity="0"/></linearGradient></defs><title>HeggCampingLogoOnly</title><g class="bbb2a905-dac0-4330-a896-7e14315a4f0f"><g id="ba03ff71-89d6-4f01-b642-0d79c1f459de" data-name="OBJECTS"><path class="be8feec4-d359-4985-9dea-1a0f1ab8c64b" d="M159.77,299.25c-16.81,4.9-33.66.05-49.64-10.3C82,270.78,75.9,235.62,91.56,206.67c16.5-30.5,53.23-39,82.93-21.18a62.55,62.55,0,0,1,15.84,13.56,25.94,25.94,0,0,0,26.17,8.82l.83-.2a17.2,17.2,0,0,0,11-24.82,87.07,87.07,0,0,0-34.48-35c-40.47-22.61-92.27-9.21-116.74,30.15a87.38,87.38,0,0,0,85.44,132.81,5.81,5.81,0,0,0,4.95-6.91h0A6.08,6.08,0,0,0,159.77,299.25Z" transform="translate(-63.88 -136.82)"/><path class="b4bf431a-b6f0-406b-a8fe-36036808f888" d="M159.77,299.25c-16.81,4.9-33.66.05-49.64-10.3C82,270.78,75.9,235.62,91.56,206.67c16.5-30.5,53.23-39,82.93-21.18a62.55,62.55,0,0,1,15.84,13.56,25.94,25.94,0,0,0,26.17,8.82l.83-.2a17.2,17.2,0,0,0,11-24.82,87.07,87.07,0,0,0-34.48-35c-40.47-22.61-92.27-9.21-116.74,30.15a87.38,87.38,0,0,0,85.44,132.81,5.81,5.81,0,0,0,4.95-6.91h0A6.08,6.08,0,0,0,159.77,299.25Z" transform="translate(-63.88 -136.82)"/><path class="bad34102-4e5b-4aea-bb83-aef3ff082463" d="M88.45,207.07c18.09-29.59,56.34-39.44,86-21.58a62.55,62.55,0,0,1,15.84,13.56,25.94,25.94,0,0,0,26.17,8.82l.83-.2a17.2,17.2,0,0,0,11-24.82,87.07,87.07,0,0,0-34.48-35c-40.47-22.61-92.27-9.21-116.74,30.15a87.39,87.39,0,0,0,66.14,133.17C69.71,297.87,74.43,230,88.45,207.07Z" transform="translate(-63.88 -136.82)"/><path class="ae8d805b-9723-437a-b5f0-193a2dd3718c" d="M129.37,164.56c36.39-1.18,53.6,19.75,62.54,33.45a22.34,22.34,0,0,0,24.59,9.86l.82-.2a17.19,17.19,0,0,0,11-24.82,86.94,86.94,0,0,0-34.48-35c-40.47-22.61-92.26-9.21-116.74,30.15a87,87,0,0,0-13.13,49.26C63.25,191.08,93,165.74,129.37,164.56Z" transform="translate(-63.88 -136.82)"/><path class="b9ba3fc6-2820-4f8c-a8f3-7d177f154869" d="M217.32,204.43l-.82.2a22.34,22.34,0,0,1-24.59-9.86c-8.94-13.7-26.15-34.63-62.54-33.45S63.25,187.84,63.94,224c0-.52,0-1.05,0-1.57,0,1.61,0,3.21,0,4.81-.69-36.13,29-61.47,65.43-62.65S183,184.31,191.91,198a22.34,22.34,0,0,0,24.59,9.86l.82-.2a17.18,17.18,0,0,0,12.94-18.31A17.15,17.15,0,0,1,217.32,204.43Z" transform="translate(-63.88 -136.82)"/><path class="a38dfd7f-db47-47b7-8c97-79962f46dc6b" d="M185,299.86a6.32,6.32,0,1,1-6.32-6.32A6.32,6.32,0,0,1,185,299.86Z" transform="translate(-63.88 -136.82)"/><path class="b994b022-c06b-41c7-9797-dd410129de8a" d="M198.09,292a4.62,4.62,0,1,1-4.61-4.62A4.6,4.6,0,0,1,198.09,292Z" transform="translate(-63.88 -136.82)"/><circle class="b994b022-c06b-41c7-9797-dd410129de8a" cx="139.99" cy="147.59" r="2.98"/><path class="a887222a-0952-4baf-9bc6-ef8b9d04cb32" d="M88.45,207.07a63.39,63.39,0,0,1,52.68-30.47,63.35,63.35,0,0,0-55.22,30.47c-13.68,22.39-18.49,87.59,49.68,103q3.81.69,7.63,1.05C69.71,297.87,74.43,230,88.45,207.07Z" transform="translate(-63.88 -136.82)"/></g></g></svg>